<svg xmlns="http://www.w3.org/2000/svg" viewBox="0 0 1600 1000">
<defs><radialGradient id="bg"><stop stop-color="#12313a"/><stop offset="1" stop-color="#07090b"/></radialGradient><linearGradient id="g" x1="0" x2="1"><stop stop-color="#00d4ff"/><stop offset="1" stop-color="#7fffd4"/></linearGradient></defs>
<rect width="1600" height="1000" fill="url(#bg)"/><g opacity=".15" stroke="#fff"><path d="M0 200H1600M0 400H1600M0 600H1600M0 800H1600"/><path d="M200 0V1000M400 0V1000M600 0V1000M800 0V1000M1000 0V1000M1200 0V1000M1400 0V1000"/></g>
<circle cx="610" cy="500" r="290" fill="#0b2028" stroke="url(#g)" stroke-width="5"/><ellipse cx="610" cy="500" rx="290" ry="110" fill="none" stroke="#57dbe9" opacity=".5"/><ellipse cx="610" cy="500" rx="125" ry="290" fill="none" stroke="#57dbe9" opacity=".35"/>
<path d="M350 460 C470 350 610 390 735 300 S940 220 1110 330" fill="none" stroke="#00d4ff" stroke-width="3" opacity=".65"/><path d="M370 650 C520 560 650 680 790 590 S1040 480 1250 570" fill="none" stroke="#7fffd4" stroke-width="3" opacity=".6"/>
<g fill="#fff"><circle cx="420" cy="430" r="8"/><circle cx="610" cy="315" r="8"/><circle cx="780" cy="420" r="8"/><circle cx="540" cy="640" r="8"/><circle cx="760" cy="610" r="8"/><circle cx="1040" cy="340" r="8"/><circle cx="1170" cy="560" r="8"/></g>
<g stroke="#00d4ff" opacity=".55"><path d="M420 430L610 315L780 420L760 610L540 640Z" fill="none"/><path d="M780 420L1040 340L1170 560L760 610Z" fill="none"/></g>
<rect x="980" y="170" width="410" height="250" rx="18" fill="#0b1115" stroke="#28424b"/><text x="1020" y="220" fill="#8fa9b0" font-family="monospace" font-size="24" letter-spacing="4">GEOSPATIAL BIG DATA</text><text x="1020" y="275" fill="#fff" font-family="sans-serif" font-size="44">DATA INSIGHTS</text><path d="M1030 355h70l45-85 60 120 55-65 65 35" fill="none" stroke="#00d4ff" stroke-width="6"/><circle cx="1100" cy="355" r="5" fill="#00d4ff"/><circle cx="1210" cy="390" r="5" fill="#00d4ff"/><circle cx="1265" cy="325" r="5" fill="#00d4ff"/><text x="1020" y="390" fill="#7c969d" font-family="monospace" font-size="17">PYTHON  /  PANDAS  /  GEOPANDAS</text>
<text x="100" y="110" fill="#00d4ff" font-family="monospace" font-size="24" letter-spacing="7">OPEN SOURCE / GEOSPATIAL / EXPLORATION</text><text x="100" y="890" fill="#fff" font-family="sans-serif" font-size="76" font-weight="600">GEOSPATIAL BIG DATA</text><text x="104" y="935" fill="#9eb2b7" font-family="monospace" font-size="21">ANALYSIS • PROCESSING • VISUALIZATION</text>
</svg>
